<svg id="Layer_1" data-name="Layer 1" xmlns="http://www.w3.org/2000/svg" viewBox="0 0 488 456"><defs><style>.cls-1{fill:#f57c00;}.cls-2{fill:#fff;}.cls-3{fill:#ffd740;}</style></defs><title>soldier3</title><path class="cls-1" d="M303.93,294.82a47.94,47.94,0,0,1-95.84,0L176,308.58V480H336V308.58Z" transform="translate(-12 -28)"/><path class="cls-2" d="M400,484a4,4,0,0,1-4-4V375.57a56,56,0,0,0-33.94-51.48l-75.64-32.42A4,4,0,0,1,284,288V274a4,4,0,0,1,8,0v11.38l73.22,31.37A64,64,0,0,1,404,375.58V480A4,4,0,0,1,400,484Z" transform="translate(-12 -28)"/><path class="cls-2" d="M112,484a4,4,0,0,1-4-4V375.57a63.92,63.92,0,0,1,38.79-58.83L220,285.36V274a4,4,0,0,1,8,0v14a4,4,0,0,1-2.42,3.67l-75.64,32.42A55.93,55.93,0,0,0,116,375.56V480A4,4,0,0,1,112,484Z" transform="translate(-12 -28)"/><path class="cls-2" d="M336,484a4,4,0,0,1-4-4V311.21l-24.57-10.53a51.95,51.95,0,0,1-102.85,0L180,311.21V480a4,4,0,0,1-8,0V308.58a4,4,0,0,1,2.42-3.68l32.08-13.75a4,4,0,0,1,5.57,3.55,43.95,43.95,0,0,0,87.85,0,4,4,0,0,1,5.58-3.55l32.08,13.75a4,4,0,0,1,2.42,3.68V480A4,4,0,0,1,336,484Z" transform="translate(-12 -28)"/><path class="cls-2" d="M336,404H288a4,4,0,0,1-4-4V376a4,4,0,0,1,4-4h48a4,4,0,0,1,4,4v24A4,4,0,0,1,336,404Zm-44-8h40V380H292Z" transform="translate(-12 -28)"/><path class="cls-2" d="M224,404H176a4,4,0,0,1-4-4V376a4,4,0,0,1,4-4h48a4,4,0,0,1,4,4v24A4,4,0,0,1,224,404Zm-44-8h40V380H180Z" transform="translate(-12 -28)"/><path class="cls-2" d="M464,284H392a4,4,0,0,1,0-8h72a4,4,0,0,1,0,8Z" transform="translate(-12 -28)"/><path class="cls-2" d="M496,284H480a4,4,0,0,1,0-8h16a4,4,0,0,1,0,8Z" transform="translate(-12 -28)"/><path class="cls-2" d="M120,284H48a4,4,0,0,1,0-8h72a4,4,0,0,1,0,8Z" transform="translate(-12 -28)"/><path class="cls-2" d="M32,284H16a4,4,0,0,1,0-8H32a4,4,0,0,1,0,8Z" transform="translate(-12 -28)"/><path class="cls-2" d="M336,452H288a4,4,0,0,1-4-4V424a4,4,0,0,1,4-4h48a4,4,0,0,1,4,4v24A4,4,0,0,1,336,452Zm-44-8h40V428H292Z" transform="translate(-12 -28)"/><path class="cls-2" d="M224,452H176a4,4,0,0,1-4-4V424a4,4,0,0,1,4-4h48a4,4,0,0,1,4,4v24A4,4,0,0,1,224,452Zm-44-8h40V428H180Z" transform="translate(-12 -28)"/><path class="cls-2" d="M188,52H156a4,4,0,0,1,0-8h32a4,4,0,0,1,0,8Z" transform="translate(-12 -28)"/><path class="cls-2" d="M172,68a4,4,0,0,1-4-4V32a4,4,0,0,1,8,0V64A4,4,0,0,1,172,68Z" transform="translate(-12 -28)"/><path class="cls-2" d="M148,92H116a4,4,0,0,1,0-8h32a4,4,0,0,1,0,8Z" transform="translate(-12 -28)"/><path class="cls-2" d="M132,108a4,4,0,0,1-4-4V72a4,4,0,0,1,8,0v32A4,4,0,0,1,132,108Z" transform="translate(-12 -28)"/><path class="cls-1" d="M332,244H180a8,8,0,0,1-8-8V172H340v64A8,8,0,0,1,332,244Z" transform="translate(-12 -28)"/><path class="cls-2" d="M332,248H180a12,12,0,0,1-12-12V172a4,4,0,0,1,4-4H340a4,4,0,0,1,4,4v64A12,12,0,0,1,332,248ZM176,176v60a4,4,0,0,0,4,4H332a4,4,0,0,0,4-4V176Z" transform="translate(-12 -28)"/><path class="cls-1" d="M332,244H180a8,8,0,0,1-8-8V172H340v64A8,8,0,0,1,332,244Z" transform="translate(-12 -28)"/><path class="cls-2" d="M332,248H180a12,12,0,0,1-12-12V172a4,4,0,0,1,4-4H340a4,4,0,0,1,4,4v64A12,12,0,0,1,332,248ZM176,176v60a4,4,0,0,0,4,4H332a4,4,0,0,0,4-4V176Z" transform="translate(-12 -28)"/><path class="cls-2" d="M256,284a92,92,0,0,1-58.33-20.93,4,4,0,0,1,5.09-6.17,83.75,83.75,0,0,0,106.49,0,4,4,0,0,1,5.08,6.17A92,92,0,0,1,256,284Z" transform="translate(-12 -28)"/><path class="cls-1" d="M344,172H168a8,8,0,0,1-8-8v-8a8,8,0,0,1,8-8H344a8,8,0,0,1,8,8v8A8,8,0,0,1,344,172Z" transform="translate(-12 -28)"/><path class="cls-2" d="M344,176H168a12,12,0,0,1-12-12v-8a12,12,0,0,1,12-12H344a12,12,0,0,1,12,12v8A12,12,0,0,1,344,176ZM168,152a4,4,0,0,0-4,4v8a4,4,0,0,0,4,4H344a4,4,0,0,0,4-4v-8a4,4,0,0,0-4-4Z" transform="translate(-12 -28)"/><path class="cls-1" d="M342.39,148A80,80,0,0,0,264,84H248a80,80,0,0,0-78.39,64Z" transform="translate(-12 -28)"/><path class="cls-2" d="M342.39,152H169.62a4,4,0,0,1-3.92-4.8A84.22,84.22,0,0,1,248,80h16a84.23,84.23,0,0,1,82.31,67.18,4,4,0,0,1-3.92,4.8Zm-167.72-8H337.33A76.23,76.23,0,0,0,264,88H248A76.23,76.23,0,0,0,174.67,144Z" transform="translate(-12 -28)"/><polygon class="cls-3" points="304 192 260.01 192 244 176 228.01 192 184 192 184 144 304 144 304 192"/><path class="cls-2" d="M316,224H272a4,4,0,0,1-2.83-1.17L256,209.66l-13.17,13.16A3.93,3.93,0,0,1,240,224H196a4,4,0,0,1-4-4V172a4,4,0,0,1,4-4H316a4,4,0,0,1,4,4v48A4,4,0,0,1,316,224Zm-42.34-8H312V176H200v40h38.34l14.83-14.83a4.09,4.09,0,0,1,5.65,0Z" transform="translate(-12 -28)"/><path class="cls-2" d="M172,221.93a4,4,0,0,1-3.82-2.83c-.32-1-.63-2.07-.92-3.12a24,24,0,0,1,.74-48h4a4,4,0,0,1,4,4v45.93a4,4,0,0,1-3.4,4C172.4,221.91,172.2,221.93,172,221.93ZM168,176a16,16,0,0,0,0,32h0Z" transform="translate(-12 -28)"/><path class="cls-2" d="M340,221.88c-.19,0-.39,0-.59,0a4,4,0,0,1-3.41-4V172a4,4,0,0,1,4-4h4a24,24,0,0,1,.74,48c-.28,1-.6,2-.91,3.07A4,4,0,0,1,340,221.88ZM344,176v32a16,16,0,0,0,0-32Z" transform="translate(-12 -28)"/></svg>