<?xml version="1.0" encoding="utf-8"?>
<!-- Generator: Adobe Illustrator 22.0.0, SVG Export Plug-In . SVG Version: 6.00 Build 0)  -->
<svg version="1.1" id="Layer_1" xmlns="http://www.w3.org/2000/svg" xmlns:xlink="http://www.w3.org/1999/xlink" x="0px" y="0px"
	 viewBox="0 0 488 456" style="enable-background:new 0 0 488 456;" xml:space="preserve">
<style type="text/css">
	.st0{fill:#F57C00;}
	.st1{fill:#424242;}
	.st2{fill:#FFD740;}
</style>
<title>soldier2</title>
<path class="st0" d="M291.9,266.8c-0.8,26.5-22.8,47.3-49.3,46.5c-25.4-0.7-45.8-21.1-46.5-46.5L164,280.6V452h160V280.6
	L291.9,266.8z"/>
<path d="M324,376h-48c-2.2,0-4-1.8-4-4v-24c0-2.2,1.8-4,4-4h48c2.2,0,4,1.8,4,4v24C328,374.2,326.2,376,324,376z M280,368h40v-16
	h-40V368z"/>
<path d="M212,376h-48c-2.2,0-4-1.8-4-4v-24c0-2.2,1.8-4,4-4h48c2.2,0,4,1.8,4,4v24C216,374.2,214.2,376,212,376z M168,368h40v-16
	h-40V368z"/>
<path d="M324,424h-48c-2.2,0-4-1.8-4-4v-24c0-2.2,1.8-4,4-4h48c2.2,0,4,1.8,4,4v24C328,422.2,326.2,424,324,424z M280,416h40v-16
	h-40V416z"/>
<path d="M212,424h-48c-2.2,0-4-1.8-4-4v-24c0-2.2,1.8-4,4-4h48c2.2,0,4,1.8,4,4v24C216,422.2,214.2,424,212,424z M168,416h40v-16
	h-40V416z"/>
<path d="M388,456c-2.2,0-4-1.8-4-4V347.6c0-22.4-13.3-42.7-33.9-51.5l-75.6-32.4c-1.5-0.6-2.4-2.1-2.4-3.7v-14c0-2.2,1.8-4,4-4
	s4,1.8,4,4v11.4l73.2,31.4c23.5,10.1,38.8,33.2,38.8,58.8V452C392,454.2,390.2,456,388,456z"/>
<path d="M100,456c-2.2,0-4-1.8-4-4V347.6c0-25.6,15.2-48.8,38.8-58.8l73.2-31.4V246c0-2.2,1.8-4,4-4s4,1.8,4,4v14c0,1.6-1,3-2.4,3.7
	l-75.6,32.4c-20.6,8.8-34,29.1-33.9,51.5V452C104,454.2,102.2,456,100,456z"/>
<path d="M324,456c-2.2,0-4-1.8-4-4V283.2l-24.6-10.5c-4.1,28.4-30.4,48.1-58.8,44.1c-22.8-3.3-40.8-21.2-44.1-44.1L168,283.2V452
	c0,2.2-1.8,4-4,4s-4-1.8-4-4V280.6c0-1.6,0.9-3,2.4-3.7l32.1-13.8c2-0.9,4.4,0.1,5.3,2.1c0.2,0.5,0.3,0.9,0.3,1.4
	c0.8,24.3,21.1,43.3,45.4,42.4c23.1-0.8,41.7-19.3,42.4-42.4c0.1-2.2,1.9-3.9,4.1-3.9c0.5,0,1,0.1,1.5,0.3l32.1,13.8
	c1.5,0.6,2.4,2.1,2.4,3.7V452C328,454.2,326.2,456,324,456L324,456z"/>
<path class="st1" d="M452,256h-72c-2.2,0-4-1.8-4-4s1.8-4,4-4h72c2.2,0,4,1.8,4,4S454.2,256,452,256z"/>
<path class="st1" d="M484,256h-16c-2.2,0-4-1.8-4-4s1.8-4,4-4h16c2.2,0,4,1.8,4,4S486.2,256,484,256z"/>
<path class="st1" d="M108,256H36c-2.2,0-4-1.8-4-4s1.8-4,4-4h72c2.2,0,4,1.8,4,4S110.2,256,108,256z"/>
<path class="st1" d="M20,256H4c-2.2,0-4-1.8-4-4s1.8-4,4-4h16c2.2,0,4,1.8,4,4S22.2,256,20,256z"/>
<path class="st1" d="M176,24h-32c-2.2,0-4-1.8-4-4s1.8-4,4-4h32c2.2,0,4,1.8,4,4S178.2,24,176,24z"/>
<path class="st1" d="M160,40c-2.2,0-4-1.8-4-4V4c0-2.2,1.8-4,4-4s4,1.8,4,4v32C164,38.2,162.2,40,160,40z"/>
<path class="st1" d="M136,64h-32c-2.2,0-4-1.8-4-4s1.8-4,4-4h32c2.2,0,4,1.8,4,4S138.2,64,136,64z"/>
<path class="st1" d="M120,80c-2.2,0-4-1.8-4-4V44c0-2.2,1.8-4,4-4s4,1.8,4,4v32C124,78.2,122.2,80,120,80z"/>
<path class="st0" d="M320,216H168c-4.4,0-8-3.6-8-8v-64h168v64C328,212.4,324.4,216,320,216z"/>
<path class="st1" d="M320,220H168c-6.6,0-12-5.4-12-12v-64c0-2.2,1.8-4,4-4h168c2.2,0,4,1.8,4,4v64C332,214.6,326.6,220,320,220z
	 M164,148v60c0,2.2,1.8,4,4,4h152c2.2,0,4-1.8,4-4v-60H164z"/>
<path class="st0" d="M320,216H168c-4.4,0-8-3.6-8-8v-64h168v64C328,212.4,324.4,216,320,216z"/>
<path d="M320,220H168c-6.6,0-12-5.4-12-12v-64c0-2.2,1.8-4,4-4h168c2.2,0,4,1.8,4,4v64C332,214.6,326.6,220,320,220z M164,148v60
	c0,2.2,1.8,4,4,4h152c2.2,0,4-1.8,4-4v-60H164z"/>
<path d="M244,256c-21.3,0-41.9-7.4-58.3-20.9c-1.7-1.4-1.9-4-0.4-5.6c1.4-1.6,3.8-1.9,5.5-0.5c30.9,25.5,75.6,25.5,106.5,0
	c1.8-1.3,4.3-1,5.6,0.8c1.2,1.7,1,4-0.5,5.4C285.9,248.6,265.3,256,244,256z"/>
<path class="st0" d="M332,144H156c-4.4,0-8-3.6-8-8v-8c0-4.4,3.6-8,8-8h176c4.4,0,8,3.6,8,8v8C340,140.4,336.4,144,332,144z"/>
<path d="M332,148H156c-6.6,0-12-5.4-12-12v-8c0-6.6,5.4-12,12-12h176c6.6,0,12,5.4,12,12v8C344,142.6,338.6,148,332,148z M156,124
	c-2.2,0-4,1.8-4,4v8c0,2.2,1.8,4,4,4h176c2.2,0,4-1.8,4-4v-8c0-2.2-1.8-4-4-4H156z"/>
<path class="st0" d="M330.4,120C322.8,82.8,290,56,252,56h-16c-38,0-70.8,26.8-78.4,64H330.4z"/>
<path d="M330.4,124H157.6c-2.2,0-4-1.8-4-4c0-0.3,0-0.5,0.1-0.8c8.1-39.1,42.4-67.1,82.3-67.2h16c39.9,0.1,74.2,28.1,82.3,67.2
	c0.4,2.2-1,4.3-3.1,4.7C330.9,124,330.7,124,330.4,124L330.4,124z M162.7,116h162.7c-9.1-33-39.1-55.9-73.3-56h-16
	C201.8,60.1,171.8,83,162.7,116L162.7,116z"/>
<polygon class="st2" points="304,192 260,192 244,176 228,192 184,192 184,144 304,144 "/>
<path d="M304,196h-44c-1.1,0-2.1-0.4-2.8-1.2L244,181.7l-13.2,13.2c-0.7,0.8-1.8,1.2-2.8,1.2h-44c-2.2,0-4-1.8-4-4v-48
	c0-2.2,1.8-4,4-4h120c2.2,0,4,1.8,4,4v48C308,194.2,306.2,196,304,196z M261.7,188H300v-40H188v40h38.3l14.8-14.8
	c1.6-1.5,4.1-1.5,5.7,0L261.7,188z"/>
<path d="M160,193.9c-1.8,0-3.3-1.2-3.8-2.8c-0.3-1-0.6-2.1-0.9-3.1c-13.3-0.2-23.8-11.1-23.6-24.4c0.2-13.3,11.1-23.8,24.4-23.6h4
	c2.2,0,4,1.8,4,4v45.9c0,2-1.4,3.7-3.4,4C160.4,193.9,160.2,193.9,160,193.9z M156,148c-8.8,0-16,7.2-16,16s7.2,16,16,16l0,0V148z"
	/>
<path d="M328,193.9c-0.2,0-0.4,0-0.6,0c-2-0.3-3.4-2-3.4-4V144c0-2.2,1.8-4,4-4h4c13.3-0.2,24.2,10.4,24.4,23.6S346,187.8,332.7,188
	l0,0c-0.3,1-0.6,2-0.9,3.1C331.3,192.7,329.8,193.9,328,193.9z M332,148v32c8.8,0,16-7.2,16-16S340.8,148,332,148z"/>
</svg>
