<?xml version="1.0" encoding="utf-8"?>
<!-- Generator: Adobe Illustrator 22.0.0, SVG Export Plug-In . SVG Version: 6.00 Build 0)  -->
<svg xmlns="http://www.w3.org/2000/svg" xmlns:xlink="http://www.w3.org/1999/xlink" version="1.1" id="Layer_1" x="0px" y="0px" viewBox="0 0 64 64" style="enable-background:new 0 0 64 64;" xml:space="preserve" width="512" height="512">
<style type="text/css">
	.st0{fill:#263238;}
	.st1{fill:#4DB6AC;}
	.st2{fill:#FFD740;}
	.st3{fill:#4FC3F7;}
	.st4{fill:#FF5252;}
	.st5{fill:#FFFFFF;}
</style>
<g>
	<g>
		<path class="st1" d="M37.991,36.853c-0.102,3.224-2.742,5.808-5.99,5.808s-5.888-2.584-5.99-5.808L22,38.572V60h20V38.572    L37.991,36.853z"/>
	</g>
	<g>
		<path class="st0" d="M50,60.5c-0.276,0-0.5-0.224-0.5-0.5V46.946c0-2.804-1.665-5.33-4.242-6.435l-9.455-4.052    C35.619,36.381,35.5,36.2,35.5,36v-1.751c0-0.276,0.224-0.5,0.5-0.5s0.5,0.224,0.5,0.5v1.422l9.152,3.922    c2.944,1.263,4.848,4.149,4.848,7.354V60C50.5,60.276,50.276,60.5,50,60.5z"/>
	</g>
	<g>
		<path class="st0" d="M14,60.5c-0.276,0-0.5-0.224-0.5-0.5V46.946c0-3.205,1.903-6.091,4.849-7.353L27.5,35.67v-1.422    c0-0.276,0.224-0.5,0.5-0.5s0.5,0.224,0.5,0.5V36c0,0.2-0.119,0.381-0.303,0.459l-9.455,4.052    c-2.577,1.104-4.242,3.63-4.242,6.434V60C14.5,60.276,14.277,60.5,14,60.5z"/>
	</g>
	<g>
		<path class="st0" d="M42,60.5c-0.276,0-0.5-0.224-0.5-0.5V38.901l-3.071-1.316c-0.445,3.179-3.143,5.576-6.428,5.576    c-3.285,0-5.983-2.396-6.429-5.576L22.5,38.901V60c0,0.276-0.224,0.5-0.5,0.5s-0.5-0.224-0.5-0.5V38.572    c0-0.2,0.119-0.381,0.303-0.459l4.01-1.719c0.151-0.065,0.326-0.051,0.465,0.038s0.226,0.241,0.231,0.406    c0.095,2.985,2.506,5.323,5.491,5.323c2.985,0,5.396-2.338,5.49-5.323c0.006-0.166,0.092-0.317,0.231-0.406    c0.139-0.087,0.313-0.103,0.466-0.038l4.01,1.719c0.184,0.079,0.303,0.259,0.303,0.459V60C42.5,60.276,42.276,60.5,42,60.5z"/>
	</g>
	<g>
		<path class="st0" d="M42,50.5h-6c-0.276,0-0.5-0.224-0.5-0.5v-3c0-0.276,0.224-0.5,0.5-0.5h6c0.276,0,0.5,0.224,0.5,0.5v3    C42.5,50.276,42.276,50.5,42,50.5z M36.5,49.5h5v-2h-5V49.5z"/>
	</g>
	<g>
		<path class="st0" d="M28,50.5h-6c-0.276,0-0.5-0.224-0.5-0.5v-3c0-0.276,0.224-0.5,0.5-0.5h6c0.276,0,0.5,0.224,0.5,0.5v3    C28.5,50.276,28.277,50.5,28,50.5z M22.5,49.5h5v-2h-5V49.5z"/>
	</g>
	<g>
		<path class="st0" d="M58,35.5h-9c-0.276,0-0.5-0.224-0.5-0.5s0.224-0.5,0.5-0.5h9c0.276,0,0.5,0.224,0.5,0.5S58.276,35.5,58,35.5z    "/>
	</g>
	<g>
		<path class="st0" d="M62,35.5h-2c-0.276,0-0.5-0.224-0.5-0.5s0.224-0.5,0.5-0.5h2c0.276,0,0.5,0.224,0.5,0.5S62.276,35.5,62,35.5z    "/>
	</g>
	<g>
		<path class="st0" d="M15,35.5H6c-0.276,0-0.5-0.224-0.5-0.5s0.224-0.5,0.5-0.5h9c0.276,0,0.5,0.224,0.5,0.5S15.277,35.5,15,35.5z"/>
	</g>
	<g>
		<path class="st0" d="M4,35.5H2c-0.276,0-0.5-0.224-0.5-0.5s0.224-0.5,0.5-0.5h2c0.276,0,0.5,0.224,0.5,0.5S4.277,35.5,4,35.5z"/>
	</g>
	<g>
		<path class="st0" d="M42,56.5h-6c-0.276,0-0.5-0.224-0.5-0.5v-3c0-0.276,0.224-0.5,0.5-0.5h6c0.276,0,0.5,0.224,0.5,0.5v3    C42.5,56.276,42.276,56.5,42,56.5z M36.5,55.5h5v-2h-5V55.5z"/>
	</g>
	<g>
		<path class="st0" d="M28,56.5h-6c-0.276,0-0.5-0.224-0.5-0.5v-3c0-0.276,0.224-0.5,0.5-0.5h6c0.276,0,0.5,0.224,0.5,0.5v3    C28.5,56.276,28.277,56.5,28,56.5z M22.5,55.5h5v-2h-5V55.5z"/>
	</g>
	<g>
		<path class="st0" d="M23.5,6.5h-4C19.224,6.5,19,6.276,19,6s0.224-0.5,0.5-0.5h4C23.777,5.5,24,5.724,24,6S23.777,6.5,23.5,6.5z"/>
	</g>
	<g>
		<path class="st0" d="M21.5,8.5C21.224,8.5,21,8.276,21,8V4c0-0.276,0.224-0.5,0.5-0.5S22,3.724,22,4v4    C22,8.276,21.777,8.5,21.5,8.5z"/>
	</g>
	<g>
		<path class="st0" d="M18.5,11.5h-4c-0.276,0-0.5-0.224-0.5-0.5s0.224-0.5,0.5-0.5h4c0.276,0,0.5,0.224,0.5,0.5    S18.777,11.5,18.5,11.5z"/>
	</g>
	<g>
		<path class="st0" d="M16.5,13.5c-0.276,0-0.5-0.224-0.5-0.5V9c0-0.276,0.224-0.5,0.5-0.5S17,8.724,17,9v4    C17,13.276,16.777,13.5,16.5,13.5z"/>
	</g>
	<g>
		<path class="st1" d="M41.501,30.497h-19c-0.552,0-1-0.448-1-1v-8h21v8C42.501,30.05,42.053,30.497,41.501,30.497z"/>
		<path class="st0" d="M41.501,30.998h-19c-0.827,0-1.5-0.673-1.5-1.5v-8c0-0.276,0.224-0.5,0.5-0.5h21c0.276,0,0.5,0.224,0.5,0.5v8    C43.001,30.325,42.328,30.998,41.501,30.998z M22.001,21.998v7.5c0,0.276,0.224,0.5,0.5,0.5h19c0.275,0,0.5-0.224,0.5-0.5v-7.5    H22.001z"/>
	</g>
	<g>
		<path class="st1" d="M41.501,30.497h-19c-0.552,0-1-0.448-1-1v-8h21v8C42.501,30.05,42.053,30.497,41.501,30.497z"/>
		<path class="st0" d="M41.501,30.998h-19c-0.827,0-1.5-0.673-1.5-1.5v-8c0-0.276,0.224-0.5,0.5-0.5h21c0.276,0,0.5,0.224,0.5,0.5v8    C43.001,30.325,42.328,30.998,41.501,30.998z M22.001,21.998v7.5c0,0.276,0.224,0.5,0.5,0.5h19c0.275,0,0.5-0.224,0.5-0.5v-7.5    H22.001z"/>
	</g>
	<g>
		<path class="st0" d="M32,35.5c-2.652,0-5.241-0.929-7.291-2.616c-0.213-0.176-0.244-0.491-0.068-0.704    c0.176-0.213,0.49-0.245,0.704-0.068C27.216,33.652,29.58,34.5,32,34.5c2.42,0,4.784-0.848,6.656-2.389    c0.211-0.175,0.527-0.146,0.703,0.068c0.176,0.213,0.146,0.528-0.068,0.704C37.241,34.571,34.652,35.5,32,35.5z"/>
	</g>
	<g>
		<path class="st1" d="M43,21.497H21c-0.552,0-1-0.448-1-1v-1c0-0.552,0.448-1,1-1h22c0.552,0,1,0.448,1,1v1    C44,21.05,43.553,21.497,43,21.497z"/>
		<path class="st0" d="M43,21.998H21c-0.827,0-1.5-0.673-1.5-1.5v-1c0-0.827,0.673-1.5,1.5-1.5h22c0.827,0,1.5,0.673,1.5,1.5v1    C44.5,21.325,43.827,21.998,43,21.998z M21,18.998c-0.276,0-0.5,0.224-0.5,0.5v1c0,0.276,0.224,0.5,0.5,0.5h22    c0.275,0,0.5-0.224,0.5-0.5v-1c0-0.276-0.225-0.5-0.5-0.5H21z"/>
	</g>
	<g>
		<path class="st1" d="M42.799,18.497C41.871,13.934,37.837,10.5,33,10.5h-2c-4.837,0-8.871,3.434-9.799,7.997H42.799z"/>
		<path class="st0" d="M42.799,18.998H21.202c-0.15,0-0.292-0.067-0.387-0.184c-0.095-0.116-0.133-0.269-0.103-0.416    C21.701,13.532,26.028,10,31,10h2c4.973,0,9.3,3.532,10.289,8.398c0.029,0.147-0.008,0.3-0.104,0.416    C43.091,18.93,42.949,18.998,42.799,18.998z M21.834,17.998h20.332C41.053,13.908,37.292,11,33,11h-2    C26.708,11,22.948,13.908,21.834,17.998z"/>
	</g>
	<g>
		<polygon class="st2" points="39.5,27.5 34.001,27.5 32,25.5 30.001,27.5 24.5,27.5 24.5,21.5 39.5,21.5   "/>
		<path class="st0" d="M39.5,28h-5.499c-0.133,0-0.26-0.053-0.354-0.146L32,26.207l-1.646,1.646C30.261,27.947,30.134,28,30.001,28    h-5.5c-0.276,0-0.5-0.224-0.5-0.5v-6c0-0.276,0.224-0.5,0.5-0.5h15c0.276,0,0.5,0.224,0.5,0.5v6C40,27.776,39.776,28,39.5,28z     M34.208,27H39v-5H25v5h4.793l1.853-1.854c0.187-0.188,0.52-0.188,0.707,0L34.208,27z"/>
	</g>
	<g>
		<path class="st0" d="M21.5,27.741c-0.216,0-0.412-0.141-0.478-0.353c-0.04-0.129-0.078-0.259-0.115-0.39    C19.296,26.95,18,25.624,18,24c0-1.654,1.346-3,3-3h0.5c0.276,0,0.5,0.224,0.5,0.5v5.741c0,0.248-0.181,0.458-0.425,0.495    C21.55,27.739,21.525,27.741,21.5,27.741z M21,22c-1.103,0-2,0.897-2,2s0.897,2,2,2h0L21,22z"/>
	</g>
	<g>
		<path class="st0" d="M42.501,27.735c-0.024,0-0.049-0.002-0.074-0.005c-0.245-0.037-0.426-0.247-0.426-0.495V21.5    c0-0.276,0.224-0.5,0.5-0.5H43c1.654,0,3,1.346,3,3c0,1.624-1.296,2.95-2.907,2.999c-0.036,0.128-0.075,0.256-0.114,0.383    C42.914,27.594,42.718,27.735,42.501,27.735z M43.001,22v4C44.104,26,45,25.103,45,24S44.104,22,43.001,22z"/>
	</g>
</g>
</svg>
